<svg id="visual" viewBox="0 0 900 600" width="900" height="600" xmlns="http://www.w3.org/2000/svg" xmlns:xlink="http://www.w3.org/1999/xlink" version="1.1"><path d="M0 353L21.5 351.8C43 350.7 86 348.3 128.8 344.3C171.7 340.3 214.3 334.7 257.2 343.8C300 353 343 377 385.8 362.8C428.7 348.7 471.3 296.3 514.2 281.3C557 266.3 600 288.7 642.8 316.7C685.7 344.7 728.3 378.3 771.2 373.7C814 369 857 326 878.5 304.5L900 283L900 601L878.5 601C857 601 814 601 771.2 601C728.3 601 685.7 601 642.8 601C600 601 557 601 514.2 601C471.3 601 428.7 601 385.8 601C343 601 300 601 257.2 601C214.3 601 171.7 601 128.8 601C86 601 43 601 21.5 601L0 601Z" fill="#262626"></path><path d="M0 365L21.5 383.5C43 402 86 439 128.8 451.2C171.7 463.3 214.3 450.7 257.2 431.8C300 413 343 388 385.8 375.2C428.7 362.3 471.3 361.7 514.2 355.2C557 348.7 600 336.3 642.8 335C685.7 333.7 728.3 343.3 771.2 340.2C814 337 857 321 878.5 313L900 305L900 601L878.5 601C857 601 814 601 771.2 601C728.3 601 685.7 601 642.8 601C600 601 557 601 514.2 601C471.3 601 428.7 601 385.8 601C343 601 300 601 257.2 601C214.3 601 171.7 601 128.8 601C86 601 43 601 21.5 601L0 601Z" fill="#232323"></path><path d="M0 433L21.5 431.2C43 429.3 86 425.7 128.8 435C171.7 444.3 214.3 466.7 257.2 479.8C300 493 343 497 385.8 496C428.7 495 471.3 489 514.2 488.5C557 488 600 493 642.8 473.3C685.7 453.7 728.3 409.3 771.2 390C814 370.7 857 376.3 878.5 379.2L900 382L900 601L878.5 601C857 601 814 601 771.2 601C728.3 601 685.7 601 642.8 601C600 601 557 601 514.2 601C471.3 601 428.7 601 385.8 601C343 601 300 601 257.2 601C214.3 601 171.7 601 128.8 601C86 601 43 601 21.5 601L0 601Z" fill="#202020"></path><path d="M0 491L21.5 497.2C43 503.3 86 515.7 128.8 515.8C171.7 516 214.3 504 257.2 507C300 510 343 528 385.8 519.2C428.7 510.3 471.3 474.7 514.2 463.3C557 452 600 465 642.8 479.5C685.7 494 728.3 510 771.2 500.2C814 490.3 857 454.7 878.5 436.8L900 419L900 601L878.5 601C857 601 814 601 771.2 601C728.3 601 685.7 601 642.8 601C600 601 557 601 514.2 601C471.3 601 428.7 601 385.8 601C343 601 300 601 257.2 601C214.3 601 171.7 601 128.8 601C86 601 43 601 21.5 601L0 601Z" fill="#1d1d1d"></path><path d="M0 493L21.5 501.5C43 510 86 527 128.8 536.2C171.7 545.3 214.3 546.7 257.2 545C300 543.3 343 538.7 385.8 532.5C428.7 526.3 471.3 518.7 514.2 525.2C557 531.7 600 552.3 642.8 555.8C685.7 559.3 728.3 545.7 771.2 544.5C814 543.3 857 554.7 878.5 560.3L900 566L900 601L878.5 601C857 601 814 601 771.2 601C728.3 601 685.7 601 642.8 601C600 601 557 601 514.2 601C471.3 601 428.7 601 385.8 601C343 601 300 601 257.2 601C214.3 601 171.7 601 128.8 601C86 601 43 601 21.5 601L0 601Z" fill="#1b1b1b"></path></svg>